<svg width="183" height="58" viewBox="0 0 183 58" fill="none" xmlns="http://www.w3.org/2000/svg">
<path d="M23.8438 23.9297C23.8438 25.3099 23.6224 26.5534 23.1797 27.6602C22.75 28.7539 22.1771 29.6914 21.4609 30.4727C20.7448 31.2409 19.9245 31.8333 19 32.25C18.0755 32.6667 17.1185 32.875 16.1289 32.875C15.582 32.875 15.0417 32.8164 14.5078 32.6992C13.974 32.569 13.4466 32.3607 12.9258 32.0742C13.043 33.0378 13.2318 34.0273 13.4922 35.043C13.7135 35.9154 14.026 36.8919 14.4297 37.9727C14.8464 39.0404 15.3932 40.0885 16.0703 41.1172C14.7422 40.974 13.5443 40.8763 12.4766 40.8242C11.4219 40.7591 10.4648 40.7266 9.60547 40.7266C8.44661 40.7266 7.47005 40.7656 6.67578 40.8438C5.89453 40.9219 5.25651 41.013 4.76172 41.1172C4.1888 41.2344 3.73307 41.3581 3.39453 41.4883C3.72005 40.4857 4 39.3919 4.23438 38.207C4.46875 37.0221 4.66406 35.7852 4.82031 34.4961C4.97656 33.207 5.09375 31.8919 5.17188 30.5508C5.25 29.1966 5.28906 27.8555 5.28906 26.5273C5.28906 25.082 5.24349 23.6693 5.15234 22.2891C5.0612 20.8958 4.92448 19.5938 4.74219 18.3828C4.57292 17.1589 4.35807 16.0456 4.09766 15.043C3.83724 14.0404 3.53776 13.2005 3.19922 12.5234C3.82422 12.7188 4.47526 12.862 5.15234 12.9531C5.84245 13.0312 6.53906 13.0703 7.24219 13.0703C7.88021 13.0703 8.51823 13.0443 9.15625 12.9922C9.80729 12.9271 10.4453 12.862 11.0703 12.7969C11.6953 12.7318 12.3008 12.6732 12.8867 12.6211C13.4727 12.556 14.0195 12.5234 14.5273 12.5234C15.0742 12.5234 15.6797 12.5951 16.3438 12.7383C17.0208 12.8815 17.7044 13.1289 18.3945 13.4805C19.0846 13.819 19.7552 14.2747 20.4062 14.8477C21.0573 15.4206 21.6367 16.1302 22.1445 16.9766C22.6523 17.8229 23.056 18.819 23.3555 19.9648C23.668 21.1107 23.8307 22.4323 23.8438 23.9297ZM12.7109 27.1133C13.0365 26.8008 13.4076 26.4232 13.8242 25.9805C14.2539 25.5247 14.6576 25.0365 15.0352 24.5156C15.4128 23.9818 15.7253 23.4349 15.9727 22.875C16.2331 22.3151 16.3633 21.7812 16.3633 21.2734C16.3633 20.6875 16.194 20.2253 15.8555 19.8867C15.5299 19.5352 15.1654 19.3594 14.7617 19.3594C14.3971 19.3594 14.0911 19.4831 13.8438 19.7305C13.6094 19.9779 13.4141 20.3034 13.2578 20.707C13.1016 21.0977 12.9844 21.5404 12.9062 22.0352C12.8281 22.5169 12.7695 22.9987 12.7305 23.4805C12.6914 23.9492 12.6719 24.3919 12.6719 24.8086C12.6719 25.2122 12.6719 25.5312 12.6719 25.7656C12.6719 25.987 12.6719 26.2083 12.6719 26.4297C12.6719 26.651 12.6849 26.8789 12.7109 27.1133ZM48.1602 41.3125C47.3138 41.2474 46.5195 41.2018 45.7773 41.1758C45.0482 41.1628 44.3711 41.1562 43.7461 41.1562C42.5221 41.1562 41.5 41.1888 40.6797 41.2539C39.8594 41.332 39.1888 41.4102 38.668 41.4883C38.056 41.5794 37.5677 41.6836 37.2031 41.8008C37.2552 41.3971 37.3073 41.0195 37.3594 40.668C37.4115 40.3164 37.4505 39.9779 37.4766 39.6523C37.5156 39.3138 37.5417 38.9818 37.5547 38.6562C37.5807 38.3177 37.5938 37.9661 37.5938 37.6016C37.5938 36.1693 37.5352 34.9779 37.418 34.0273C37.3138 33.0768 37.1576 32.2826 36.9492 31.6445C36.7409 31.0065 36.487 30.4922 36.1875 30.1016C35.888 29.7109 35.556 29.3594 35.1914 29.0469C35.1654 29.6328 35.1458 30.1992 35.1328 30.7461C35.1198 31.293 35.1133 31.8724 35.1133 32.4844C35.1133 33.0833 35.1263 33.7083 35.1523 34.3594C35.1784 35.0104 35.224 35.7005 35.2891 36.4297C35.3542 37.1589 35.4518 37.9401 35.582 38.7734C35.7122 39.5938 35.875 40.4857 36.0703 41.4492C36.0573 41.3971 35.888 41.3385 35.5625 41.2734C35.237 41.2083 34.8008 41.1497 34.2539 41.0977C33.707 41.0456 33.0755 41.0065 32.3594 40.9805C31.6562 40.9414 30.9206 40.9219 30.1523 40.9219C29.1497 40.9219 28.1471 40.9544 27.1445 41.0195C26.1419 41.0977 25.237 41.2409 24.4297 41.4492C24.7422 41.0456 25.0221 40.5378 25.2695 39.9258C25.5299 39.3008 25.7578 38.6172 25.9531 37.875C26.1484 37.1328 26.3112 36.3516 26.4414 35.5312C26.5846 34.7109 26.7083 33.9036 26.8125 33.1094C27.0469 31.2474 27.2031 29.2617 27.2812 27.1523C27.2812 26.6315 27.2812 25.974 27.2812 25.1797C27.2943 24.3854 27.2812 23.5195 27.2422 22.582C27.2161 21.6445 27.1641 20.681 27.0859 19.6914C27.0208 18.7018 26.9036 17.7513 26.7344 16.8398C26.5781 15.9284 26.3698 15.0951 26.1094 14.3398C25.849 13.5846 25.5169 12.9792 25.1133 12.5234C26.0508 12.6667 26.9622 12.7643 27.8477 12.8164C28.7331 12.8555 29.4883 12.875 30.1133 12.875C30.6602 12.875 31.1615 12.862 31.6172 12.8359C32.0859 12.8099 32.5482 12.7839 33.0039 12.7578C33.4596 12.7318 33.9349 12.7057 34.4297 12.6797C34.9245 12.6536 35.4714 12.6406 36.0703 12.6406C36.8906 12.6406 37.7174 12.6862 38.5508 12.7773C39.3841 12.8555 40.1784 13.0052 40.9336 13.2266C41.7018 13.4349 42.4115 13.7279 43.0625 14.1055C43.7266 14.4701 44.2995 14.9388 44.7812 15.5117C45.276 16.0716 45.6602 16.7487 45.9336 17.543C46.2201 18.3372 46.3633 19.2617 46.3633 20.3164C46.3633 20.9023 46.2852 21.4883 46.1289 22.0742C45.9857 22.6602 45.7448 23.2396 45.4062 23.8125C45.0677 24.3724 44.625 24.9128 44.0781 25.4336C43.5443 25.9414 42.8867 26.4102 42.1055 26.8398C43.0299 27.2174 43.7266 27.6862 44.1953 28.2461C44.6771 28.806 45.0221 29.444 45.2305 30.1602C45.4388 30.8763 45.5495 31.6576 45.5625 32.5039C45.5885 33.3372 45.6146 34.2096 45.6406 35.1211C45.6927 36.0977 45.8164 37.0026 46.0117 37.8359C46.0898 38.1875 46.1875 38.5456 46.3047 38.9102C46.4349 39.2747 46.5846 39.6133 46.7539 39.9258C46.9362 40.2383 47.138 40.5182 47.3594 40.7656C47.5938 41.013 47.8607 41.1953 48.1602 41.3125ZM35.1914 24.4766C35.4779 24.2682 35.7969 24.0078 36.1484 23.6953C36.513 23.3698 36.8451 23.0182 37.1445 22.6406C37.457 22.25 37.7174 21.8398 37.9258 21.4102C38.1341 20.9805 38.2383 20.5508 38.2383 20.1211C38.2383 19.7044 38.1146 19.3659 37.8672 19.1055C37.6328 18.8451 37.3659 18.7148 37.0664 18.7148C36.6497 18.7148 36.3177 18.9102 36.0703 19.3008C35.8229 19.6784 35.6276 20.1276 35.4844 20.6484C35.3542 21.1693 35.263 21.6966 35.2109 22.2305C35.1719 22.7513 35.1523 23.1549 35.1523 23.4414C35.1523 23.5977 35.1523 23.7669 35.1523 23.9492C35.1523 24.1185 35.1654 24.2943 35.1914 24.4766ZM70.5039 27.9141C70.5039 29.8932 70.2826 31.7552 69.8398 33.5C69.3971 35.2318 68.7266 36.7487 67.8281 38.0508C66.9297 39.3398 65.7904 40.3555 64.4102 41.0977C63.043 41.8529 61.4219 42.2305 59.5469 42.2305C57.6849 42.2305 56.0638 41.8529 54.6836 41.0977C53.3164 40.3555 52.1771 39.3398 51.2656 38.0508C50.3672 36.7487 49.6966 35.2318 49.2539 33.5C48.8112 31.7552 48.5898 29.8932 48.5898 27.9141C48.5898 26.4557 48.7266 25.0495 49 23.6953C49.2734 22.3411 49.651 21.0781 50.1328 19.9062C50.6146 18.7344 51.194 17.6667 51.8711 16.7031C52.5482 15.7396 53.2904 14.9193 54.0977 14.2422C54.918 13.5521 55.7839 13.0182 56.6953 12.6406C57.6198 12.263 58.5703 12.0742 59.5469 12.0742C61.1875 12.0742 62.6784 12.4779 64.0195 13.2852C65.3737 14.0794 66.526 15.1862 67.4766 16.6055C68.4401 18.0247 69.1823 19.6979 69.7031 21.625C70.237 23.5521 70.5039 25.6484 70.5039 27.9141ZM62.5156 26.2344C62.5156 25.2578 62.4375 24.3594 62.2812 23.5391C62.125 22.7057 61.9102 21.9896 61.6367 21.3906C61.3763 20.7786 61.0638 20.3034 60.6992 19.9648C60.3346 19.6133 59.9505 19.4375 59.5469 19.4375C59.1562 19.4375 58.7852 19.6458 58.4336 20.0625C58.082 20.4661 57.7695 20.9935 57.4961 21.6445C57.2357 22.2956 57.0273 23.0247 56.8711 23.832C56.7148 24.6393 56.6367 25.4401 56.6367 26.2344C56.6367 27.0026 56.7018 27.7188 56.832 28.3828C56.9753 29.0339 57.1706 29.6003 57.418 30.082C57.6654 30.5638 57.9648 30.9479 58.3164 31.2344C58.681 31.5078 59.0911 31.6445 59.5469 31.6445C59.9896 31.6445 60.3932 31.5078 60.7578 31.2344C61.1354 30.9479 61.4479 30.5638 61.6953 30.082C61.9557 29.6003 62.1576 29.0339 62.3008 28.3828C62.444 27.7188 62.5156 27.0026 62.5156 26.2344ZM93.3359 12.9531C93.1667 13.3698 93.0169 13.8451 92.8867 14.3789C92.7695 14.9128 92.6589 15.4727 92.5547 16.0586C92.4635 16.6445 92.3789 17.2435 92.3008 17.8555C92.2357 18.4674 92.1836 19.0599 92.1445 19.6328C92.0404 20.987 91.9753 22.3867 91.9492 23.832C91.9492 24.7305 91.9427 25.681 91.9297 26.6836C91.9297 27.6862 91.8906 28.7083 91.8125 29.75C91.7474 30.7917 91.6237 31.8268 91.4414 32.8555C91.2721 33.8711 91.0052 34.8477 90.6406 35.7852C90.2891 36.7227 89.8268 37.5951 89.2539 38.4023C88.694 39.1966 87.9844 39.8932 87.125 40.4922C86.2656 41.0781 85.2435 41.5339 84.0586 41.8594C82.8867 42.1979 81.513 42.3672 79.9375 42.3672C78.5573 42.3672 77.3268 42.1393 76.2461 41.6836C75.1784 41.2279 74.2734 40.6224 73.5312 39.8672C72.7891 39.112 72.2227 38.2396 71.832 37.25C71.4544 36.2604 71.2656 35.2318 71.2656 34.1641C71.2656 33.1875 71.4219 32.3151 71.7344 31.5469C72.0469 30.7786 72.457 30.1341 72.9648 29.6133C73.4727 29.0794 74.0521 28.6758 74.7031 28.4023C75.3542 28.1289 76.0182 27.9922 76.6953 27.9922C77.6458 27.9922 78.5378 28.2721 79.3711 28.832C80.2174 29.3919 80.862 30.2448 81.3047 31.3906C81.1484 31.2474 80.9727 31.1432 80.7773 31.0781C80.5951 31 80.4258 30.9609 80.2695 30.9609C80.0482 30.9609 79.8333 31.013 79.625 31.1172C79.4167 31.2083 79.2344 31.3451 79.0781 31.5273C78.9219 31.6966 78.7917 31.8984 78.6875 32.1328C78.5964 32.3542 78.5508 32.6016 78.5508 32.875C78.5508 33.1875 78.6029 33.474 78.707 33.7344C78.8242 33.9818 78.9805 34.1966 79.1758 34.3789C79.3711 34.5482 79.5924 34.6849 79.8398 34.7891C80.1003 34.8802 80.3737 34.9258 80.6602 34.9258C81.2591 34.9258 81.7604 34.776 82.1641 34.4766C82.5807 34.1641 82.9128 33.6953 83.1602 33.0703C83.4076 32.4453 83.5833 31.6576 83.6875 30.707C83.8047 29.7565 83.8633 28.6302 83.8633 27.3281C83.8633 26.4557 83.8438 25.5378 83.8047 24.5742C83.7786 23.5977 83.7331 22.6211 83.668 21.6445C83.6029 20.668 83.5182 19.7174 83.4141 18.793C83.3099 17.8555 83.1797 16.9831 83.0234 16.1758C82.8802 15.3555 82.7174 14.6198 82.5352 13.9688C82.3529 13.3177 82.1445 12.7969 81.9102 12.4062C82.3789 12.5755 82.9388 12.7253 83.5898 12.8555C84.1497 12.9596 84.8464 13.0573 85.6797 13.1484C86.513 13.2396 87.4831 13.2852 88.5898 13.2852C89.293 13.2852 90.0352 13.2656 90.8164 13.2266C91.5977 13.1745 92.4375 13.0833 93.3359 12.9531ZM113.121 41.2734C112.444 41.1432 111.747 41.0456 111.031 40.9805C110.328 40.9023 109.579 40.8438 108.785 40.8047C108.004 40.7656 107.164 40.7461 106.266 40.7461C105.38 40.7331 104.417 40.7266 103.375 40.7266C102.88 40.7266 102.288 40.7331 101.598 40.7461C100.921 40.7591 100.185 40.7917 99.3906 40.8438C98.6094 40.8958 97.8021 40.9674 96.9688 41.0586C96.1354 41.1628 95.3216 41.293 94.5273 41.4492C94.8138 40.8633 95.0612 40.1276 95.2695 39.2422C95.4779 38.3438 95.6471 37.3932 95.7773 36.3906C95.9206 35.388 96.0312 34.3659 96.1094 33.3242C96.1875 32.2826 96.2461 31.3125 96.2852 30.4141C96.3242 29.5156 96.3438 28.7409 96.3438 28.0898C96.3568 27.4258 96.3633 26.9701 96.3633 26.7227C96.3633 26.6706 96.3568 26.4688 96.3438 26.1172C96.3438 25.7656 96.3372 25.3099 96.3242 24.75C96.3112 24.1901 96.2917 23.5521 96.2656 22.8359C96.2396 22.1068 96.2005 21.3516 96.1484 20.5703C96.1094 19.7891 96.0508 19.0013 95.9727 18.207C95.9076 17.4128 95.8229 16.6641 95.7188 15.9609C95.6276 15.2448 95.5169 14.6068 95.3867 14.0469C95.2695 13.474 95.1263 13.0182 94.957 12.6797C96.2331 12.862 97.4896 12.9987 98.7266 13.0898C99.9635 13.168 101.161 13.207 102.32 13.207C103.74 13.207 105.068 13.168 106.305 13.0898C107.542 13.0117 108.622 12.9206 109.547 12.8164C110.628 12.6992 111.611 12.5625 112.496 12.4062V21.5664C111.741 20.8633 111.018 20.3229 110.328 19.9453C109.638 19.5677 109.026 19.2878 108.492 19.1055C107.867 18.8971 107.281 18.7799 106.734 18.7539C106.083 18.7539 105.549 18.8385 105.133 19.0078C104.729 19.1641 104.41 19.3724 104.176 19.6328C103.954 19.8802 103.805 20.1667 103.727 20.4922C103.648 20.8047 103.609 21.1237 103.609 21.4492C103.609 21.7878 103.655 22.1263 103.746 22.4648C103.85 22.8034 104.007 23.1094 104.215 23.3828C104.423 23.6562 104.69 23.8841 105.016 24.0664C105.354 24.2357 105.751 24.3203 106.207 24.3203C106.585 24.3203 106.93 24.2357 107.242 24.0664C107.555 23.8841 107.822 23.6823 108.043 23.4609C108.303 23.2135 108.544 22.9271 108.766 22.6016V30.5508C108.557 30.056 108.31 29.6654 108.023 29.3789C107.75 29.0924 107.477 28.8841 107.203 28.7539C106.943 28.6107 106.702 28.526 106.48 28.5C106.272 28.4609 106.129 28.4414 106.051 28.4414C105.204 28.4414 104.573 28.7018 104.156 29.2227C103.74 29.7435 103.531 30.4141 103.531 31.2344C103.531 31.8333 103.596 32.3411 103.727 32.7578C103.87 33.1745 104.052 33.513 104.273 33.7734C104.508 34.0339 104.775 34.2227 105.074 34.3398C105.387 34.457 105.712 34.5156 106.051 34.5156C106.572 34.5156 107.132 34.3984 107.73 34.1641C108.329 33.9297 108.902 33.6172 109.449 33.2266C110.009 32.8359 110.517 32.3932 110.973 31.8984C111.441 31.3906 111.812 30.8763 112.086 30.3555L113.121 41.2734ZM135.641 20.3164C135.641 20.9805 135.523 21.6576 135.289 22.3477C135.055 23.0247 134.716 23.6432 134.273 24.2031C133.844 24.75 133.316 25.1992 132.691 25.5508C132.066 25.9023 131.357 26.0781 130.562 26.0781C129.859 26.0781 129.254 25.9609 128.746 25.7266C128.251 25.4792 127.841 25.1536 127.516 24.75C127.203 24.3464 126.969 23.8906 126.812 23.3828C126.656 22.875 126.578 22.3477 126.578 21.8008C126.578 21.2539 126.643 20.7266 126.773 20.2188C126.917 19.6979 127.132 19.2357 127.418 18.832C127.496 19.1055 127.6 19.3203 127.73 19.4766C127.861 19.6198 127.997 19.724 128.141 19.7891C128.297 19.8672 128.466 19.9128 128.648 19.9258C129.065 19.9258 129.358 19.8151 129.527 19.5938C129.71 19.3724 129.801 19.1185 129.801 18.832C129.801 18.7018 129.775 18.5716 129.723 18.4414C129.671 18.2982 129.586 18.168 129.469 18.0508C129.365 17.9336 129.221 17.8359 129.039 17.7578C128.857 17.6797 128.635 17.6406 128.375 17.6406C128.232 17.6406 128.023 17.6602 127.75 17.6992C127.49 17.7383 127.197 17.8424 126.871 18.0117C126.546 18.168 126.214 18.4089 125.875 18.7344C125.536 19.0599 125.224 19.5026 124.938 20.0625C124.664 20.6224 124.436 21.319 124.254 22.1523C124.085 22.9857 124 24.0013 124 25.1992C124 26.0195 124.078 26.7357 124.234 27.3477C124.404 27.9466 124.618 28.4609 124.879 28.8906C125.139 29.3203 125.439 29.6719 125.777 29.9453C126.116 30.2188 126.461 30.4336 126.812 30.5898C127.164 30.7461 127.503 30.8568 127.828 30.9219C128.167 30.974 128.466 31 128.727 31C129.065 31 129.488 30.9414 129.996 30.8242C130.517 30.694 131.031 30.4661 131.539 30.1406C132.047 29.8151 132.503 29.3659 132.906 28.793C133.323 28.2201 133.609 27.4779 133.766 26.5664C134.221 27.2044 134.566 27.9661 134.801 28.8516C135.048 29.737 135.172 30.668 135.172 31.6445C135.172 32.9727 134.931 34.2617 134.449 35.5117C133.98 36.7487 133.303 37.849 132.418 38.8125C131.546 39.776 130.484 40.5443 129.234 41.1172C127.984 41.7031 126.591 41.9961 125.055 41.9961C123.922 41.9961 122.874 41.8138 121.91 41.4492C120.947 41.0977 120.068 40.6029 119.273 39.9648C118.479 39.3268 117.783 38.5781 117.184 37.7188C116.585 36.8464 116.077 35.9023 115.66 34.8867C115.243 33.8711 114.931 32.8034 114.723 31.6836C114.514 30.5508 114.41 29.4049 114.41 28.2461C114.41 26.9701 114.547 25.6875 114.82 24.3984C115.094 23.0964 115.484 21.8464 115.992 20.6484C116.513 19.4505 117.138 18.3307 117.867 17.2891C118.609 16.2344 119.449 15.3229 120.387 14.5547C121.324 13.7734 122.353 13.1615 123.473 12.7188C124.592 12.263 125.784 12.0352 127.047 12.0352C128.193 12.0352 129.202 12.1719 130.074 12.4453C130.947 12.7057 131.695 13.0638 132.32 13.5195C132.958 13.9622 133.492 14.4701 133.922 15.043C134.352 15.6159 134.69 16.2083 134.938 16.8203C135.198 17.4323 135.38 18.0443 135.484 18.6562C135.589 19.2552 135.641 19.8086 135.641 20.3164ZM152.633 40.9219C152.333 40.8958 151.988 40.8698 151.598 40.8438C151.259 40.8177 150.862 40.7982 150.406 40.7852C149.951 40.7721 149.436 40.7656 148.863 40.7656C147.9 40.7656 146.812 40.8047 145.602 40.8828C144.404 40.9479 143.134 41.0781 141.793 41.2734C142.249 39.3464 142.594 37.4909 142.828 35.707C143.062 33.9232 143.238 32.3346 143.355 30.9414C143.486 29.3138 143.564 27.7839 143.59 26.3516C143.59 25.7396 143.577 25.069 143.551 24.3398C143.525 23.7148 143.492 22.9922 143.453 22.1719C143.414 21.3385 143.362 20.4401 143.297 19.4766C142.685 20.0625 142.073 20.694 141.461 21.3711C140.862 22.0352 140.283 22.7318 139.723 23.4609C139.163 24.1771 138.635 24.9062 138.141 25.6484C137.659 26.3906 137.236 27.1198 136.871 27.8359L137.34 12.9141C138.564 13.0573 139.853 13.168 141.207 13.2461C142.574 13.3242 143.967 13.3633 145.387 13.3633C147.418 13.3633 149.43 13.2917 151.422 13.1484C153.414 13.0052 155.243 12.7969 156.91 12.5234L157.633 27.6016C156.695 25.8177 155.654 24.1445 154.508 22.582C153.375 21.0065 152.164 19.6914 150.875 18.6367C150.771 19.5221 150.693 20.4531 150.641 21.4297C150.602 22.3932 150.582 23.3828 150.582 24.3984C150.582 25.7135 150.621 27.0677 150.699 28.4609C150.79 29.8411 150.914 31.2344 151.07 32.6406C151.24 34.0469 151.454 35.4466 151.715 36.8398C151.975 38.2331 152.281 39.5938 152.633 40.9219ZM179.059 18.7148C179.059 19.3659 178.935 19.9583 178.688 20.4922C178.453 21.013 178.121 21.4622 177.691 21.8398C177.262 22.2174 176.754 22.5104 176.168 22.7188C175.595 22.9271 174.97 23.0312 174.293 23.0312C173.551 23.0312 172.913 22.9401 172.379 22.7578C171.858 22.5755 171.415 22.3477 171.051 22.0742C170.699 21.7878 170.419 21.4753 170.211 21.1367C170.003 20.7852 169.84 20.4466 169.723 20.1211C169.618 19.7956 169.547 19.4961 169.508 19.2227C169.482 18.9492 169.469 18.7409 169.469 18.5977C169.625 18.8581 169.807 19.0273 170.016 19.1055C170.224 19.1706 170.4 19.2031 170.543 19.2031C170.908 19.2031 171.161 19.1055 171.305 18.9102C171.461 18.7148 171.539 18.5065 171.539 18.2852C171.539 18.1419 171.507 17.9922 171.441 17.8359C171.389 17.6797 171.285 17.5365 171.129 17.4062C170.986 17.263 170.784 17.1458 170.523 17.0547C170.276 16.9635 169.964 16.918 169.586 16.918C169.326 16.918 169.059 16.9701 168.785 17.0742C168.512 17.1654 168.258 17.3151 168.023 17.5234C167.802 17.7188 167.62 17.9661 167.477 18.2656C167.333 18.5651 167.262 18.9167 167.262 19.3203C167.262 19.7109 167.34 20.1016 167.496 20.4922C167.665 20.8698 167.887 21.2279 168.16 21.5664C168.447 21.9049 168.779 22.2109 169.156 22.4844C169.547 22.7578 169.97 22.9857 170.426 23.168C171.142 23.4674 171.878 23.7604 172.633 24.0469C173.401 24.3333 174.143 24.6458 174.859 24.9844C175.576 25.3229 176.246 25.7135 176.871 26.1562C177.509 26.5859 178.062 27.1003 178.531 27.6992C179.013 28.2982 179.391 29.0013 179.664 29.8086C179.951 30.6029 180.094 31.5339 180.094 32.6016C180.094 34.125 179.781 35.5182 179.156 36.7812C178.544 38.0312 177.717 39.1055 176.676 40.0039C175.647 40.8893 174.449 41.5729 173.082 42.0547C171.728 42.5495 170.309 42.7969 168.824 42.7969C167.483 42.7969 166.207 42.5951 164.996 42.1914C163.785 41.8008 162.724 41.2604 161.812 40.5703C160.901 39.8802 160.172 39.0729 159.625 38.1484C159.091 37.2109 158.824 36.2018 158.824 35.1211C158.824 34.3268 158.954 33.6302 159.215 33.0312C159.475 32.4323 159.833 31.9375 160.289 31.5469C160.758 31.1432 161.298 30.8438 161.91 30.6484C162.535 30.4531 163.199 30.3555 163.902 30.3555C164.449 30.3555 164.983 30.4141 165.504 30.5312C166.038 30.6484 166.533 30.8242 166.988 31.0586C167.457 31.2799 167.874 31.5534 168.238 31.8789C168.616 32.2044 168.915 32.5755 169.137 32.9922C168.863 32.9141 168.622 32.875 168.414 32.875C168.062 32.875 167.783 32.9792 167.574 33.1875C167.366 33.3958 167.262 33.7083 167.262 34.125C167.262 34.3464 167.314 34.5547 167.418 34.75C167.522 34.9323 167.652 35.0951 167.809 35.2383C167.978 35.3815 168.167 35.4922 168.375 35.5703C168.596 35.6484 168.824 35.6875 169.059 35.6875C169.319 35.6875 169.56 35.6354 169.781 35.5312C170.003 35.4141 170.198 35.2643 170.367 35.082C170.536 34.8997 170.667 34.6979 170.758 34.4766C170.849 34.2552 170.895 34.0273 170.895 33.793C170.895 33.3372 170.751 32.875 170.465 32.4062C170.191 31.9375 169.788 31.5208 169.254 31.1562C168.238 30.5312 167.281 29.9909 166.383 29.5352C165.484 29.0794 164.658 28.6497 163.902 28.2461C163.147 27.8294 162.464 27.4128 161.852 26.9961C161.253 26.5794 160.738 26.0977 160.309 25.5508C159.892 25.0039 159.573 24.3659 159.352 23.6367C159.13 22.8945 159.02 22.0026 159.02 20.9609C159.02 19.7109 159.26 18.5391 159.742 17.4453C160.224 16.3516 160.921 15.401 161.832 14.5938C162.757 13.7734 163.883 13.1289 165.211 12.6602C166.539 12.1914 168.049 11.957 169.742 11.957C171.448 11.957 172.893 12.1654 174.078 12.582C175.263 12.9857 176.22 13.513 176.949 14.1641C177.691 14.8151 178.225 15.5443 178.551 16.3516C178.889 17.1458 179.059 17.9336 179.059 18.7148Z" fill="#669CFF"/>
</svg>
